<svg width="288" height="304" viewBox="0 0 288 304" fill="none" xmlns="http://www.w3.org/2000/svg">
  <path d="M127.967 3.35371C138.188 -1.1179 149.812 -1.1179 160.033 3.35371L264.033 48.8537C278.592 55.2235 288 69.6077 288 85.4992V207.515C288 222.194 279.959 235.695 267.052 242.687L163.052 299.02C151.167 305.457 136.833 305.457 124.948 299.02L20.9482 242.687C8.04066 235.695 9.51383e-05 222.194 0 207.515V85.4992C0.000187148 69.6077 9.40773 55.2235 23.9668 48.8537L127.967 3.35371ZM22.4746 81.8723C17.1629 79.3111 11 83.1813 11 89.0783V209.503C11 220.179 16.8661 229.992 26.2695 235.047L125.712 288.502C131.042 291.367 137.5 287.507 137.5 281.456V154.922C137.5 144.172 131.345 134.371 121.662 129.701L22.4746 81.8723ZM277 89.0783C277 83.1813 270.837 79.3111 265.525 81.8723L166.338 129.701C156.655 134.371 150.5 144.172 150.5 154.922V281.456C150.5 287.507 156.958 291.367 162.288 288.502L261.73 235.047C271.134 229.992 277 220.179 277 209.503V89.0783ZM154.416 17.8937C147.775 14.9902 140.225 14.9902 133.584 17.8937L28.5137 63.8352C25.3752 65.2075 25.3009 69.6329 28.3916 71.1096L129.344 119.337C138.613 123.765 149.387 123.765 158.656 119.337L259.608 71.1096C262.699 69.6329 262.625 65.2075 259.486 63.8352L154.416 17.8937Z" fill="white"/>
</svg>
